<?xml version="1.0" encoding="UTF-8" standalone="no"?>
<!-- Created with Inkscape (http://www.inkscape.org/) -->

<svg
   width="97.238976mm"
   height="75.206604mm"
   viewBox="0 0 97.238976 75.206604"
   version="1.1"
   id="svg1"
   xml:space="preserve"
   sodipodi:docname="logo2.svg"
   inkscape:version="1.4.2 (f4327f4, 2025-05-13)"
   xmlns:inkscape="http://www.inkscape.org/namespaces/inkscape"
   xmlns:sodipodi="http://sodipodi.sourceforge.net/DTD/sodipodi-0.dtd"
   xmlns="http://www.w3.org/2000/svg"
   xmlns:svg="http://www.w3.org/2000/svg"><sodipodi:namedview
     id="namedview1"
     pagecolor="#ffffff"
     bordercolor="#000000"
     borderopacity="0.25"
     inkscape:showpageshadow="2"
     inkscape:pageopacity="0.0"
     inkscape:pagecheckerboard="0"
     inkscape:deskcolor="#d1d1d1"
     inkscape:document-units="mm"
     showgrid="false"
     inkscape:zoom="1.2897349"
     inkscape:cx="183.75869"
     inkscape:cy="141.88962"
     inkscape:window-width="1280"
     inkscape:window-height="650"
     inkscape:window-x="-6"
     inkscape:window-y="-6"
     inkscape:window-maximized="1"
     inkscape:current-layer="layer1" /><defs
     id="defs1" /><g
     id="layer1"
     transform="translate(-41.502293,-99.630265)"><path
       style="display:inline;fill:#ffffff;stroke:#4150b0;stroke-width:6.24834;stroke-dasharray:none;stroke-opacity:1"
       id="rect2"
       width="90.246788"
       height="68.214409"
       x="59.999153"
       y="114.61132"
       d="m 58.734907,106.75478 h 62.773753 a 8.9361738,8.9361738 0 0 1 8.93617,8.93617 v 43.08524 a 8.9361738,8.9361738 0 0 1 -8.93617,8.93617 H 58.734907 a 8.9361738,8.9361738 0 0 1 -8.936174,-8.93617 v -43.08524 a 8.9361738,8.9361738 0 0 1 8.936174,-8.93617 z" /><path
       class="st0"
       d="m 375.48,267.63 c 38.64,34.21 69.78,70.87 89.82,105.42 34.42,-61.56 57.42,-134.71 57.71,-181.3 0,-0.33 0,-0.63 0,-0.91 0,-68.94 -68.77,-95.77 -128.01,-95.77 -59.24,0 -128.01,26.83 -128.01,95.77 0,0.94 0,2.2 0,3.72 33.02,14.68 72.16,40.91 108.49,73.07 z"
       id="path1"
       style="display:inline;fill:#fa2921"
       transform="matrix(0.13889206,0,0,0.12744179,35.210806,88.357038)" /><path
       class="st1"
       d="m 164.7,455.63 c 24.15,-26.87 61.2,-55.99 103.01,-80.61 44.48,-26.18 88.97,-44.47 128.02,-52.84 -47.91,-51.76 -110.37,-96.24 -154.6,-110.91 -0.31,-0.1 -0.6,-0.19 -0.86,-0.28 -65.57,-21.3 -112.34,35.81 -130.64,92.15 -18.3,56.34 -14.04,130.04 51.53,151.34 0.89,0.29 2.09,0.68 3.54,1.15 z"
       id="path2-1"
       style="display:inline;fill:#ed79b5"
       transform="matrix(0.13889206,0,0,0.12744179,35.210806,88.357038)" /><path
       class="st2"
       d="M 681.07,302.19 C 662.77,245.85 616,188.74 550.43,210.04 c -0.9,0.29 -2.1,0.68 -3.54,1.15 -3.75,35.93 -16.6,81.27 -35.96,125.76 -20.59,47.32 -45.84,88.27 -72.51,118 69.18,13.72 145.86,12.98 190.26,-1.14 0.31,-0.1 0.6,-0.2 0.86,-0.28 65.57,-21.31 69.83,-95.01 51.53,-151.34 z"
       id="path3"
       style="display:inline;fill:#ffb400"
       transform="matrix(0.13889206,0,0,0.12744179,35.210806,88.357038)" /><path
       class="st3"
       d="m 336.54,510.71 c -11.15,-50.39 -14.8,-98.36 -10.7,-138.08 -64.03,29.57 -125.63,75.23 -153.26,112.76 -0.19,0.26 -0.37,0.51 -0.53,0.73 -40.52,55.78 -0.66,117.91 47.27,152.72 47.92,34.82 119.33,53.54 159.86,-2.24 0.56,-0.76 1.3,-1.78 2.19,-3.01 -18.09,-31.27 -34.35,-75.51 -44.83,-122.88 z"
       id="path4"
       style="display:inline;fill:#1e83f7"
       transform="matrix(0.13889206,0,0,0.12744179,35.210806,88.357038)" /><path
       class="st4"
       d="m 617.57,482.52 c -35.33,7.54 -82.42,9.33 -130.72,4.66 -51.37,-4.96 -98.11,-16.32 -134.63,-32.5 8.33,70.03 32.73,142.73 59.88,180.6 0.19,0.26 0.37,0.51 0.53,0.73 40.52,55.78 111.93,37.06 159.86,2.24 47.92,-34.82 87.79,-96.95 47.27,-152.72 -0.56,-0.76 -1.3,-1.78 -2.19,-3.01 z"
       id="path5"
       style="display:inline;fill:#18c249"
       transform="matrix(0.13889206,0,0,0.12744179,35.210806,88.357038)" /><path
       style="display:inline;fill:#4150b0;fill-opacity:1;stroke:#4150b0;stroke-width:4.47686;stroke-linecap:round;stroke-linejoin:round;stroke-dasharray:none;stroke-opacity:1"
       d="m 82.679148,122.9054 22.435742,14.79035 -22.577742,13.86597 z"
       id="path6" /><path
       style="display:none;fill:none;stroke:#000000;stroke-width:6.9;stroke-linecap:round;stroke-linejoin:round;stroke-dasharray:none"
       d="M 76.398765,120.97557 104.01987,137.758 76.223946,153.49155 Z"
       id="path2" /></g></svg>
